# xmcd CD database file
#
# Track frame offsets:
#	150
#	22272
#	41392
#	63515
#
# Disc length: 1099 seconds
#
# Revision: 0
# Processed by: cddbd v1.5.1PL0 Copyright (c) Steve Scherf et al.
# Submitted via: CDex 1.51
#
DISCID=30044904
DTITLE=w-inds. - 変わりゆく空
DYEAR=1900
DGENRE=J-Pop
TTITLE0=変わりゆく空
TTITLE1=いつか、虹の下で
TTITLE2=変わりゆく空 (Instrumental)
TTITLE3=いつか、虹の下で (Instrumental)
EXTD=
EXTT0=
EXTT1=
EXTT2=
EXTT3=
PLAYORDER=
